<?xml-stylesheet type="text/css" href="../main.css" ?>
<svg version="1.1" id="cat" 
	xmlns="http://www.w3.org/2000/svg" 
	xmlns:xlink="http://www.w3.org/1999/xlink" x="0px" y="0px" viewBox="0 0 300 300" style="enable-background:new 0 0 300 300;" xml:space="preserve">
	<style type="text/css">	.st0{fill:#BFBEBE;}	.st1{clip-path:url(#SVGID_2_);}	.st2{fill:#97EFEC;}	.st3{fill:#4C4845;}	.st4{fill:#FFFFFF;}	.st5{clip-path:url(#SVGID_4_);}	.st6{fill:#EBEBEC;}	.st7{fill:#FCE0E0;}	.st8{fill:#F9B9B9;}	.st9{fill:#DDD7D7;}	.st10{opacity:0.2;fill:#FFFFFF;enable-background:new    ;}
</style>
	<path class="st0" d="M125.7,196c0,0-2.5-29.2-19.3-32.4S79.7,170,79.7,170S73.6,205.8,125.7,196z"/>
	<g>
		<defs>
			<path id="SVGID_1_" d="M125.7,196c0,0-2.5-29.2-19.3-32.4S79.7,170,79.7,170S73.6,205.8,125.7,196z"/>
		</defs>
		<clipPath id="SVGID_2_">
			<use xlink:href="#SVGID_1_" style="overflow:visible;"/>
		</clipPath>
		<g class="st1 eye">
			<circle class="st2" cx="102.6" cy="180.3" r="16.2"/>
			<circle class="st3" cx="103.4" cy="180.1" r="9.6"/>
			<circle class="st4" cx="102.9" cy="178.6" r="3"/>
		</g>
	</g>
	<path class="st0" d="M169.8,195.8c0,0,2.5-29.2,19.3-32.4s26.7,6.4,26.7,6.4S221.9,205.6,169.8,195.8z"/>
	<g>
		<defs>
			<path id="SVGID_3_" d="M169.8,195.8c0,0,2.5-29.2,19.3-32.4s26.7,6.4,26.7,6.4S221.9,205.6,169.8,195.8z"/>
		</defs>
		<clipPath id="SVGID_4_">
			<use xlink:href="#SVGID_3_" style="overflow:visible;"/>
		</clipPath>
		<g class="st5 eye">
			<circle class="st2" cx="192.9" cy="180.1" r="16.2"/>
			<circle class="st3" cx="192.1" cy="179.9" r="9.6"/>
			<path class="st4" d="M189.6,178.4c0,1.7,1.3,3,3,3s3-1.3,3-3s-1.3-3-3-3S189.6,176.8,189.6,178.4z"/>
		</g>
	</g>
	<path class="st6" d="M260.2,179.8c-0.1-15.6-15.2-140.3-16.8-147.7c-1.6-7.4,0.9-28.8-9-19.7c-9.9,9-53.5,87.5-60.9,91.6	c-7.4,4.1-40.1,4.1-47.4,0c-7.4-4.1-51.1-82.6-60.9-91.6c-9.8-9-7.4,12.3-9,19.7c-1.6,7.4-16.3,129.5-16.4,145.1	C39.6,200,41.4,289.8,147,289.8h5.5C258.2,289.8,260.4,202.7,260.2,179.8z M79.7,170c0,0,9.9-9.7,26.7-6.5	c16.8,3.3,19.3,32.5,19.3,32.5C73.6,205.8,79.7,170,79.7,170z M169.8,195.8c0,0,2.5-29.2,19.3-32.5c16.8-3.3,26.7,6.4,26.7,6.4	S221.9,205.6,169.8,195.8z"/>
	<link href="../main.css" rel="stylesheet" type="text/css" 
		xmlns="http://www.w3.org/1999/xhtml">
	</link>
	<title>icons</title>
	<path class="st7" d="M59.7,142.8c6.4,6.7,22.4,3,34.9-6.4c7.5-5.6,26.2-22.2,18.4-35.8c-11.9-20.5-38.3-77-49-71.3	C58,32.5,49.3,131.9,59.7,142.8z"/>
	<path class="st7" d="M239,142.8c-6.4,6.7-22.4,3-34.9-6.4c-7.5-5.6-26.2-22.2-18.4-35.8c11.9-20.5,38.3-77,49-71.3	C240.7,32.5,249.4,131.9,239,142.8z"/>
	<path class="st8 tongue" d="M136.1,251.8c0.5,5.1,4.2,9.5,9.2,10.6c0.8,0.2,1.6,0.3,2.4,0.3c1.1,0,2.3-0.2,3.4-0.5c4.5-1.3,7.8-5.2,8.5-9.8	l0.5-3.5l-12-0.2h-12.5L136.1,251.8z"/>
	<path class="st6" d="M147.8,242.4c0,9.4-7.6,17-17,17s-17-7.6-17-17"/>
	<path class="st6" d="M181.9,242.4c0,9.4-7.6,17-17,17s-17-7.6-17-17"/>
	<path class="st9" d="M166,259.5c-8.7,0-16.2-6.2-17.9-14.8h-0.3c0,10.1,8.2,18.2,18.2,18.2s18.2-8.2,18.2-18.2h-0.3	C182.2,253.3,174.7,259.5,166,259.5z"/>
	<path class="st9" d="M129.5,259.5c-8.7,0-16.2-6.2-17.9-14.8h-0.3c0,10.1,8.2,18.2,18.2,18.2s18.2-8.2,18.2-18.2h-0.3	C145.8,253.3,138.3,259.5,129.5,259.5z"/>
	<path class="st8" d="M154.5,215.8H141c-18.2,0-12.3,16.4-6.9,16.4c7.8,0,9.5,3.8,12.4,4.7l0.8,12h1l0.8-12c2.9-0.9,4.5-4.7,12.4-4.7	C166.9,232.2,172.8,215.8,154.5,215.8z"/>
	<path class="st10" d="M147.8,107.2c-9.3-0.1-18.1-1.2-21.6-3.1c-7.4-4.1-51-82.6-60.9-91.6s-7.4,12.3-9,19.7S40,161.9,39.9,177.4	C39.7,200.2,41.5,290,147.2,290h0.6L147.8,107.2z"/>
</svg>