<svg id="Layer_1" data-name="Layer 1" xmlns="http://www.w3.org/2000/svg" viewBox="0 0 300 300"><defs><style>.cls-1{fill:#414141;}.cls-2{fill:#383939;}.cls-3{fill:#d8d8d7;}.cls-4{fill:#11100e;}.cls-5{fill:#171413;}.cls-6{fill:#1e1913;}.cls-7{opacity:0;}.cls-8{fill:#dfdddc;}.cls-9{fill:#a6a5a5;}.cls-10{fill:#30302f;}.cls-11{fill:#aca8a9;}.cls-12{fill:#212121;}.cls-13{fill:#353535;}.cls-14{fill:#1e1b17;}.cls-15{fill:#2d2d2d;}.cls-16{fill:#939291;}.cls-17{fill:#fff;}</style></defs><title>icons</title><path class="cls-1" d="M286,274.2A11.8,11.8,0,0,1,274.2,286H25.8A11.8,11.8,0,0,1,14,274.2V25.81A11.8,11.8,0,0,1,25.8,14H274.2A11.8,11.8,0,0,1,286,25.81Z"/><path class="cls-2" d="M150,286H25.8A11.8,11.8,0,0,1,14,274.2V25.81A11.8,11.8,0,0,1,25.8,14H150Z"/><circle class="cls-3" cx="149.2" cy="151.04" r="112.86"/><circle class="cls-4" cx="149.2" cy="151.04" r="107.33"/><path class="cls-5" d="M149.19,151l-47.14,96.43a107.61,107.61,0,0,1-53.4-58.84Z"/><path class="cls-6" d="M149.2,151l-70.45-81a107.56,107.56,0,0,1,28.12-17.64Z"/><path class="cls-5" d="M149.2,151l44.7-97.59A107.24,107.24,0,0,1,221.57,71.8Z"/><path class="cls-5" d="M149.19,151l46,97a107.53,107.53,0,0,1-31.84,9.4Z"/><path class="cls-6" d="M149.19,151l105.63-19a107.63,107.63,0,0,1-10.67,69.11Z"/><path class="cls-6" d="M149.2,151,129.61,45.51a107.68,107.68,0,0,1,13.25-1.61Z"/><g class="cls-7"><circle class="cls-8" cx="149.2" cy="151.04" r="95.22"/></g><g class="cls-7"><circle class="cls-8" cx="149.2" cy="151.04" r="84.17" transform="translate(-0.3 0.3) rotate(-0.11)"/></g><g class="cls-7"><circle class="cls-8" cx="149.2" cy="151.04" r="72.6" transform="matrix(1, 0, 0, 1, -0.35, 0.34)"/></g><g class="cls-7"><circle class="cls-8" cx="149.2" cy="151.04" r="62.08" transform="translate(-2.23 299.84) rotate(-89.85)"/></g><g class="cls-7"><circle class="cls-8" cx="149.2" cy="151.04" r="52.08"/></g><g class="cls-7"><circle class="cls-8" cx="149.2" cy="151.04" r="44.19"/></g><g class="cls-7"><circle class="cls-8" cx="149.2" cy="151.04" r="35.79" transform="matrix(1, 0, 0, 1, -0.71, 0.71)"/></g><circle class="cls-9" cx="149.2" cy="151.04" r="26.44"/><circle class="cls-10" cx="149.2" cy="151.04" r="6.31"/><path class="cls-11" d="M233.37,187.86a4.73,4.73,0,0,1-3.82-7.53L256,144.23V66.34a4.74,4.74,0,0,1,9.47,0v79.44a4.73,4.73,0,0,1-.91,2.79l-27.36,37.36A4.73,4.73,0,0,1,233.37,187.86Z"/><path class="cls-12" d="M276.53,53.69a1.38,1.38,0,0,1-1.37,1.37H246.31a1.37,1.37,0,0,1-1.37-1.37V24.83a1.37,1.37,0,0,1,1.37-1.37h28.85a1.39,1.39,0,0,1,1.37,1.37Z"/><path class="cls-12" d="M268.66,68.07a.68.68,0,0,1-.68.69H253.49a.68.68,0,0,1-.68-.69V53.59a.69.69,0,0,1,.68-.69H268a.68.68,0,0,1,.68.69Z"/><circle class="cls-13" cx="35.82" cy="265.2" r="10.52"/><circle class="cls-4" cx="35.82" cy="265.2" r="8.16"/><path class="cls-14" d="M30.81,270.37A7.17,7.17,0,0,1,41,260.23C43.75,263,33.61,273.16,30.81,270.37Z"/><circle class="cls-13" cx="62.27" cy="265.2" r="10.52"/><circle class="cls-4" cx="62.27" cy="265.2" r="8.16"/><path class="cls-14" d="M57.25,270.37a7.17,7.17,0,0,1,10.14-10.14C70.18,263,60,273.16,57.25,270.37Z"/><path class="cls-15" d="M208.09,271.39a3,3,0,0,1-3-3v-2.72a3,3,0,0,1,3-3H271a3,3,0,0,1,3,3v2.72a3,3,0,0,1-3,3Z"/><circle class="cls-16" cx="247.36" cy="266.93" r="6.59"/><path class="cls-17" d="M247.36,274.54a7.61,7.61,0,1,1,7.61-7.61A7.61,7.61,0,0,1,247.36,274.54Zm0-13.17a5.57,5.57,0,1,0,5.57,5.56A5.56,5.56,0,0,0,247.36,261.37Z"/><path class="cls-10" d="M228.87,199a.69.69,0,0,1-1,0l-10.24-10.25a.68.68,0,0,1,0-1l10.24-10.25a.7.7,0,0,1,1,0l10.24,10.25a.68.68,0,0,1,0,1Z"/></svg>