<?xml version="1.0" encoding="utf-8"?>
<?xml-stylesheet type="text/css" href="../main.css"?>
<!-- Generator: Adobe Illustrator 22.1.0, SVG Export Plug-In . SVG Version: 6.00 Build 0)  -->
<svg version="1.1" id="Layer_2" xmlns="http://www.w3.org/2000/svg" xmlns:xlink="http://www.w3.org/1999/xlink" x="0px" y="0px"
	 viewBox="0 0 304 267" style="enable-background:new 0 0 304 267;" xml:space="preserve">
	 
<style type="text/css">
	.st0{fill:#f52754;}
	.st1{fill:#FFFFFF;}
	.st2{fill:none;stroke:#000000;stroke-miterlimit:10;}
	.st3{fill:#FFFFFF;stroke:#000000;stroke-miterlimit:10;}
	.st4{fill:#68002A;}
	.st5{opacity:0.17;fill:#F2F2F2;}
	.st6{fill:none;stroke:#000000;stroke-linejoin:round;stroke-miterlimit:10;}
</style>
<path d="M301.3,246.5c0,8.7-66.7,15.8-149,15.8c-82.3,0-149-7.1-149-15.8s66.7-15.8,149-15.8C234.6,230.7,301.3,237.8,301.3,246.5"
	/>
<g id="AntennaR">
	<polyline class="st0" points="149.6,87.6 144.3,89.2 124.9,22 127.5,21.2 149.6,87.6 	"/>
	<polyline points="149.6,87.6 149.4,87 144.8,88.4 125.7,22.4 127,22 148.9,87.8 149.6,87.6 149.4,87 149.6,87.6 150.2,87.4 
		127.9,20.3 124,21.5 143.9,90.1 150.5,88.1 150.2,87.4 149.6,87.6 	"/>
	<circle class="st1" cx="125.6" cy="19.3" r="3.4"/>
	<circle class="st2" cx="125.6" cy="19.3" r="3.4"/>
</g>
<g id="AntennaL">
	<polyline class="st0" points="168.5,82.4 163.5,80.2 196.7,9.1 199.3,10.3 168.5,82.4 	"/>
	<polyline points="168.5,82.4 168.8,81.8 164.4,79.8 197.1,10.1 198.4,10.6 167.9,82.1 168.5,82.4 168.8,81.8 168.5,82.4 
		169.1,82.7 200.1,9.9 196.4,8.2 162.6,80.5 168.9,83.3 169.1,82.7 168.5,82.4 	"/>
	<circle class="st3" cx="199.7" cy="7" r="3.4"/>
</g>
<path class="st1" d="M154.4,117.5c-23.8,0-43.2-11.4-43.2-25.4c0-14,19.4-25.4,43.2-25.4c3.4,0,6.8,0.2,10.1,0.7
	c19.5,2.7,33.2,12.9,33.2,24.7c0,13.9-19.2,25.3-42.9,25.4h0H154.4"/>
<path d="M154.4,67.4c3.4,0,6.8,0.2,10,0.7c18.7,2.6,32.6,12.4,32.6,24c0,13.6-18.9,24.6-42.2,24.7h-0.3c-23.5,0-42.6-11.1-42.6-24.7
	C111.9,78.4,130.9,67.4,154.4,67.4 M154.4,66c-24.2,0-43.9,11.7-43.9,26.1c0,14.4,19.7,26.1,43.9,26.1h0.3
	c11.5-0.1,22.4-2.7,30.6-7.5c8.4-4.9,13-11.5,13-18.6c0-12.2-13.9-22.6-33.8-25.4C161.3,66.2,157.9,66,154.4,66"/>
<path class="st0" d="M197,92.1c0,13.6-18.9,24.6-42.2,24.7c-18.7-2.6-32.6-12.4-32.6-24c0-13.6,18.9-24.6,42.2-24.7
	C183.1,70.6,197,80.4,197,92.1"/>
<g id="TV_Body">
	<path class="st0" d="M246.7,244.5H47.1c-2.9,0-5.2-2.3-5.2-5.2v-6c0-2.9,2.3-5.2,5.2-5.2h199.6c2.9,0,5.2,2.3,5.2,5.2v6
		C251.9,242.1,249.6,244.5,246.7,244.5"/>
	<path d="M246.7,244.5v-0.7H47.1c-2.5,0-4.5-2-4.5-4.5v-6c0-2.5,2-4.5,4.5-4.5h199.6c2.5,0,4.5,2,4.5,4.5v6c0,2.5-2,4.5-4.5,4.5
		V244.5v0.7c3.3,0,5.9-2.6,5.9-5.9v-6c0-3.3-2.6-5.9-5.9-5.9H47.1c-3.3,0-5.9,2.6-5.9,5.9v6c0,3.3,2.6,5.9,5.9,5.9h199.6V244.5"/>
	<path class="st4" d="M251.2,239H42.5v0.3c0,2.5,2,4.5,4.5,4.5h199.6c2.5,0,4.5-2,4.5-4.5V239"/>
	<path d="M252.6,239h-1.4v0.3l0,0c0,2.5-2,4.5-4.5,4.5l0,0H47.1c-2.5,0-4.5-2-4.5-4.5V239h-1.4v0.3c0,3.3,2.6,5.9,5.9,5.9h199.6
		c3.3,0,5.9-2.6,5.9-5.9V239"/>
	<path class="st0" d="M28.1,238.3c-5.7,0-10.3-4.6-10.3-10.3V86.6c0-2,0.6-3.9,1.7-5.6c1.9-2.9,5.1-4.7,8.6-4.7h244.4
		c3.7,0,7.1,2,9,5.3c0.9,1.5,1.3,3.3,1.3,5V228c0,5.7-4.6,10.3-10.3,10.3H28.1"/>
	<path d="M272.5,77c3.6,0,6.7,2,8.4,4.9c0.8,1.4,1.2,3,1.2,4.7V228c0,5.3-4.3,9.6-9.6,9.6H28.1c-5.3,0-9.6-4.3-9.6-9.6V86.6
		c0-1.9,0.6-3.7,1.6-5.2c1.7-2.6,4.7-4.4,8-4.4H272.5 M272.5,75.6H28.1c-3.7,0-7.2,1.9-9.2,5c-1.2,1.8-1.8,3.9-1.8,6V228
		c0,6,4.9,11,11,11h244.4c6,0,11-4.9,11-11V86.6c0-1.9-0.5-3.7-1.4-5.4C280.1,77.7,276.5,75.6,272.5,75.6"/>
	<path class="st0" d="M208.1,83.6c-0.7-0.7-1.7-1.2-2.8-1.2H28c-1,0-2,0.4-2.7,1c-0.8,0.7-1.3,1.8-1.3,3v141.6c0,1,0.4,1.9,1,2.6
		c0.7,0.8,1.8,1.4,3,1.4h177.3c1.2,0,2.3-0.5,3-1.4c0.6-0.7,1-1.6,1-2.6V86.5C209.3,85.4,208.9,84.4,208.1,83.6 M200.4,91.4
		c-0.4-0.4-1.1-0.7-1.7-0.7h-164c-0.6,0-1.2,0.2-1.6,0.6L200.4,91.4"/>
	<path d="M208.1,83.6l0.5-0.5c-0.8-0.9-2-1.4-3.3-1.4H28c-1.2,0-2.3,0.5-3.2,1.2l0.5,0.5L24.8,83c-0.9,0.9-1.5,2.1-1.5,3.5v141.6
		c0,1.2,0.4,2.3,1.2,3.1l0.5-0.5l-0.5,0.4c0.8,1,2.1,1.6,3.5,1.6h177.3c1.4,0,2.7-0.6,3.5-1.6c0.7-0.8,1.2-1.9,1.2-3.1V86.5
		c0-1.3-0.5-2.5-1.4-3.3L208.1,83.6l0.5-0.5L208.1,83.6l-0.5,0.5c0.6,0.6,1,1.4,1,2.3v141.6c0,0.8-0.3,1.6-0.8,2.2
		c-0.6,0.7-1.5,1.1-2.5,1.1H28c-1,0-1.9-0.4-2.5-1.1l0,0c-0.5-0.6-0.8-1.3-0.8-2.2V86.5c0-1,0.4-1.9,1.1-2.5l0,0
		c0.6-0.5,1.4-0.9,2.2-0.9h177.3c0.9,0,1.8,0.4,2.3,1l0,0L208.1,83.6 M200.9,90.9c-0.6-0.6-1.4-0.9-2.2-0.9h-164
		c-0.8,0-1.5,0.3-2,0.8l0.9,1c0.3-0.3,0.7-0.4,1.1-0.4h164c0.5,0,0.9,0.2,1.2,0.5L200.9,90.9"/>
	<path class="st1" d="M208.3,230.7c-0.7,0.8-1.8,1.4-3,1.4H28c-1.2,0-2.3-0.5-3-1.4h0l8.1-6.1l2.5,0.6V102c0-2.1,1.7-3.8,3.8-3.8
		h154.4c2.1,0,3.8,1.7,3.8,3.8v123.2l2.4-0.5L208.3,230.7"/>
	<path d="M199.9,91.9c0.3,0.3,0.5,0.8,0.5,1.2v129.7c0,1-0.8,1.8-1.8,1.8h-164c-1,0-1.8-0.8-1.8-1.8V93.1c0-0.5,0.2-1,0.6-1.3
		l-0.9-1.1c-0.7,0.6-1.1,1.4-1.1,2.4v129.7c0,1.7,1.4,3.1,3.1,3.1h164c1.7,0,3.1-1.4,3.1-3.1V93.1c0-0.9-0.4-1.6-0.9-2.2L199.9,91.9
		"/>
	<path id="screen" d="M171.4,217.6H61.9c-11.1,0-20-9-20-20v-79.2c0-11.1,9-20,20-20h109.6c11.1,0,20,9,20,20v79.2
		C191.5,208.6,182.5,217.6,171.4,217.6"/>
	<path id="glare" class="st5" d="M171.4,101.1H61.9c-4.8,0-9.1,1.9-12.2,5.1c-3.1,3.1-5.1,7.4-5.1,12.2v52.2
		c20.3-24.6,59.9-55.7,132.3-68.6C175.2,101.4,173.4,101.1,171.4,101.1"/>
	<path d="M171.4,217.6v-2.7H61.9c-4.8,0-9.1-1.9-12.2-5.1c-3.1-3.1-5.1-7.4-5.1-12.2v-79.2c0-4.8,1.9-9.1,5.1-12.2
		c3.1-3.1,7.4-5.1,12.2-5.1h109.6c4.8,0,9.1,1.9,12.2,5.1c3.1,3.1,5.1,7.4,5.1,12.2v79.2c0,4.8-1.9,9.1-5.1,12.2
		c-3.1,3.1-7.4,5.1-12.2,5.1V217.6v2.7c12.6,0,22.8-10.2,22.8-22.8v-79.2c0-12.6-10.2-22.8-22.8-22.8H61.9
		c-12.6,0-22.8,10.2-22.8,22.8v79.2c0,12.6,10.2,22.8,22.8,22.8h109.6V217.6"/>
	<path class="st0" d="M271.2,232.1h-50.9c-2.2,0-4.1-1.8-4.1-4.1V86.5c0-2.2,1.8-4.1,4.1-4.1h50.9c2.2,0,4.1,1.8,4.1,4.1V228
		C275.2,230.3,273.4,232.1,271.2,232.1"/>
	<path d="M271.2,232.1v-0.7h-50.9c-1.9,0-3.4-1.5-3.4-3.4V86.5c0-1.9,1.5-3.4,3.4-3.4h50.9c1.9,0,3.4,1.5,3.4,3.4V228
		c0,1.9-1.5,3.4-3.4,3.4V232.1v0.7c2.6,0,4.8-2.1,4.8-4.8V86.5c0-2.6-2.1-4.8-4.8-4.8h-50.9c-2.6,0-4.8,2.1-4.8,4.8V228
		c0,2.6,2.1,4.8,4.8,4.8h50.9V232.1"/>
	<path class="st4" d="M221.2,230.7c-2,0-3.6-1.6-3.6-3.6V87.5c0-2,1.6-3.6,3.6-3.6h49c2,0,3.6,1.6,3.6,3.6v15.3l0,0v73.3l0,0v51
		c0,2-1.6,3.6-3.6,3.6l0,0H221.2 M271.2,83.1h-50.9c-1.9,0-3.4,1.5-3.4,3.4V228c0,1.9,1.5,3.4,3.4,3.4h50.9c1.9,0,3.4-1.5,3.4-3.4
		V86.5C274.5,84.7,273,83.2,271.2,83.1"/>
	<path d="M216.9,86.5L216.9,86.5c0-1.9,1.5-3.4,3.4-3.4h50.9c1.9,0,3.4,1.5,3.4,3.4V228l0,0c0,1.9-1.5,3.4-3.4,3.4l0,0h-50.9
		c-1.9,0-3.4-1.5-3.4-3.4V86.5L216.9,86.5 M271.2,81.8h-50.9c-2.6,0-4.8,2.1-4.8,4.8V228c0,2.6,2.1,4.8,4.8,4.8h50.9
		c2.6,0,4.8-2.1,4.8-4.8V86.5C275.9,83.9,273.8,81.8,271.2,81.8"/>
	<path class="st1" d="M270.2,230.1h-49c-1.6,0-2.9-1.3-2.9-2.9V87.5c0-1.6,1.3-2.9,2.9-2.9h49c1.6,0,2.9,1.3,2.9,2.9v139.7
		C273.2,228.7,271.9,230.1,270.2,230.1"/>
	<path d="M270.2,230.1v-0.7h-49c-1.2,0-2.3-1-2.3-2.3V87.5c0-1.2,1-2.3,2.3-2.3h49c1.2,0,2.3,1,2.3,2.3v139.7c0,1.2-1,2.3-2.3,2.3
		V230.1v0.7c2,0,3.6-1.6,3.6-3.6V87.5c0-2-1.6-3.6-3.6-3.6h-49c-2,0-3.6,1.6-3.6,3.6v139.6c0,2,1.6,3.6,3.6,3.6h49V230.1"/>
	<path d="M182.6,101.7L182.6,101.7l-0.1-0.7L182.6,101.7l0.4-0.6L182.6,101.7"/>
	<path class="st1" d="M279.3,79.7c-1.3-0.5-3.5-0.8-4.6-0.8H25.1c-0.9,0-2.3,0.2-3.6,0.5c1.7-1.5,4.6-2.4,8-2.4h241.5
		C274.6,77,277.7,78.1,279.3,79.7z"/>
	<path class="st4" d="M28,83.1c-0.6,0-1.2,0.2-1.6,0.4l6.8,6.8c0.4-0.2,1-0.4,1.5-0.4c0,0,0,0,0,0c0,0,0,0,0,0c0,0,0,0,0,0h164
		c0.6,0,1.2,0.2,1.7,0.5l6.8-6.8c-0.5-0.3-1.1-0.5-1.8-0.5c0,0,0,0,0,0H28C28,83.1,28,83.1,28,83.1"/>
	<path d="M34.7,90c-0.5,0-1.1,0.1-1.5,0.4l0,0C33.6,90.2,34.1,90,34.7,90C34.7,90,34.7,90,34.7,90"/>
	<path class="st4" d="M208.7,83.3c0.1,0.1,0.2,0.3,0.3,0.4l0,0L208.7,83.3 M24.8,83.1l-0.4,0.4l0,0C24.5,83.4,24.6,83.2,24.8,83.1"
		/>
	<path class="st4" d="M34.7,91.4L34.7,91.4c-0.2,0-0.5,0.1-0.7,0.1C34.2,91.4,34.4,91.4,34.7,91.4 M33.1,91.3l0.4,0.5c0,0,0,0,0,0
		l0.1,0L33.1,91.3 M208.1,83.6l-0.5,0.5l0,0c-0.2-0.2-0.3-0.3-0.5-0.4l-6.8,6.8c-0.5-0.3-1.1-0.5-1.7-0.5h-164c0,0,0,0,0,0
		c0,0,0,0,0,0c0,0,0,0,0,0h164c0.9,0,1.7,0.4,2.2,0.9l-0.5,0.5l0.5-0.5c0.2,0.2,0.3,0.3,0.4,0.5l6.8-6.8c-0.1-0.2-0.3-0.4-0.4-0.5
		L208.1,83.6L208.1,83.6 M26.4,83.6c-0.2,0.1-0.4,0.3-0.6,0.4l0,0c-0.2,0.1-0.3,0.3-0.4,0.5l6.8,6.8c0.1-0.2,0.3-0.4,0.5-0.5
		c0.2-0.1,0.3-0.3,0.5-0.4L26.4,83.6"/>
	<path d="M34.7,90c-0.5,0-1.1,0.1-1.5,0.4l0,0c-0.2,0.1-0.4,0.2-0.5,0.4c0,0,0,0,0,0l0.4,0.5l0.5,0.5c0.1-0.1,0.3-0.2,0.4-0.3
		c0.2-0.1,0.4-0.1,0.7-0.1l0,0c0,0,0,0,0,0h164c0,0,0,0,0,0c0.5,0,0.9,0.2,1.2,0.5l0.5-0.5l0.5-0.5c-0.6-0.6-1.4-0.9-2.2-0.9H34.7
		C34.7,90,34.7,90,34.7,90 M208.1,83.6L208.1,83.6l-0.5-0.5L208.1,83.6l0.5-0.5L208.1,83.6 M205.3,81.8H28c-1.2,0-2.3,0.5-3.2,1.2
		l0,0c0,0,0,0,0,0l-0.1,0.1c-0.1,0.1-0.3,0.3-0.4,0.4l1,1c0.1-0.2,0.3-0.3,0.4-0.5l0,0c0.2-0.2,0.4-0.3,0.6-0.4l0,0
		c0.5-0.3,1-0.4,1.6-0.4c0,0,0,0,0,0h177.3c0,0,0,0,0,0c0.7,0,1.3,0.2,1.8,0.5l0,0c0.2,0.1,0.4,0.3,0.5,0.4l0,0l0.5-0.5l-0.5,0.5
		c0.2,0.2,0.3,0.3,0.4,0.5l1-1c-0.1-0.1-0.2-0.3-0.3-0.4l-0.1-0.1c0,0,0,0,0,0l0,0C207.8,82.3,206.6,81.8,205.3,81.8"/>
	<path d="M200.9,90.9l-0.5,0.5l-0.5,0.5c0,0,0,0,0,0l0.5,0.5l0.9-0.9C201.2,91.3,201,91.1,200.9,90.9 M32.6,90.8
		C32.6,90.8,32.6,90.8,32.6,90.8c-0.2,0.2-0.4,0.3-0.5,0.5l0.9,0.9l0.4-0.4c0,0,0,0,0,0l-0.4-0.5L32.6,90.8"/>
	<path class="st4" d="M275.2,236.4c-0.1,0-0.3,0-0.4,0H25.4c1.2,0.3,2.6,0.5,4.1,0.5c0,0,0,0,0,0h241.5c0,0,0,0,0,0
		C272.6,236.9,274,236.7,275.2,236.4"/>
	<path class="st4" d="M25.4,236.4h249.4c0.1,0,0.3,0,0.4,0c-1.2,0.4-2.6,0.6-4.1,0.6c0,0,0,0,0,0H29.5c0,0,0,0,0,0
		C28,236.9,26.6,236.7,25.4,236.4 M279.1,234.2c-1.2,0.5-3.3,0.8-4.3,0.8c0,0,0,0,0,0H25.1c0,0,0,0,0,0c-0.8,0-2.2-0.2-3.4-0.5
		l-0.9-0.2c1.8,2,4.4,3.3,7.3,3.3h244.4c2.7,0,5.1-1.1,6.8-2.8L279.1,234.2 M280.1,233.8l-1,0.4l0.2,0.5
		C279.6,234.5,279.9,234.2,280.1,233.8"/>
	<path d="M282,233.1l-1.9,0.7c-0.2,0.3-0.5,0.6-0.8,0.9l0,0.1l0-0.1c-1.7,1.8-4.2,2.8-6.8,2.8H28.1c-2.9,0-5.5-1.3-7.3-3.3l-1.9-0.5
		l2.2,1.9c1.9,1.6,4.9,2.6,8.4,2.6h241.5c3.7,0,6.9-1.1,8.8-2.9L282,233.1"/>
	<path class="st6" d="M208.1,83.6c-0.7-0.7-1.7-1.2-2.8-1.2H28c-1,0-2,0.4-2.7,1c-0.8,0.7-1.3,1.8-1.3,3v141.6c0,1,0.4,1.9,1,2.6
		c0.7,0.8,1.8,1.4,3,1.4h177.3c1.2,0,2.3-0.5,3-1.4c0.6-0.7,1-1.6,1-2.6V86.5C209.3,85.4,208.9,84.4,208.1,83.6z M200.4,91.4
		c-0.4-0.4-1.1-0.7-1.7-0.7h-164c-0.6,0-1.2,0.2-1.6,0.6"/>
	<path class="st0" d="M272.8,176.5h-54.1c-0.2,0-0.4-0.2-0.4-0.4v-73.3c0-0.2,0.2-0.4,0.4-0.4h54.1c0.2,0,0.4,0.2,0.4,0.4v73.3
		C273.2,176.3,273,176.5,272.8,176.5"/>
	<path d="M272.8,176.5v-0.7h-54.1v0.3l0.3,0c0-0.2-0.1-0.3-0.3-0.3v0.3l0.3,0v-73.3h-0.3v0.3c0.1,0,0.3-0.1,0.3-0.3h-0.3v0.3h54.1
		v-0.3l-0.3,0c0,0.2,0.1,0.3,0.3,0.3v-0.3l-0.3,0v73.3h0.3v-0.3c-0.2,0-0.3,0.1-0.3,0.3h0.3v-0.3V176.5v0.7c0.6,0,1.1-0.5,1.1-1.1
		v-73.3c0-0.6-0.5-1.1-1.1-1.1h-54.1c-0.6,0-1.1,0.5-1.1,1.1v73.3c0,0.6,0.5,1.1,1.1,1.1h54.1V176.5"/>
	<path class="st4" d="M225,164.5c0.7,1.5,1.6,2.8,2.7,3.9c2.5,2.5,5.9,4,9.7,4c3.8,0,7.2-1.5,9.7-4c1.1-1.1,2-2.4,2.7-3.9
		c-2.7,3.9-7.3,6.5-12.4,6.5C232.3,171,227.8,168.4,225,164.5"/>
	<path class="st4" d="M249.9,130.2c-2.7,3.9-7.3,6.5-12.4,6.5c-5.2,0-9.7-2.6-12.4-6.5c0.7,1.5,1.6,2.8,2.7,3.9c2.5,2.5,5.9,4,9.7,4
		c3.8,0,7.2-1.5,9.7-4C248.3,132.9,249.2,131.6,249.9,130.2"/>
	<path class="st4" d="M222.4,123c0,0.5-0.1,0.9-0.1,1.4c0,8.3,6.8,15.1,15.1,15.1c8.3,0,15.1-6.8,15.1-15.1h-0.2
		c-0.4,2.1-1.2,4.1-2.4,5.8c-0.7,1.5-1.6,2.8-2.7,3.9c-2.5,2.5-5.9,4-9.7,4c-3.8,0-7.2-1.5-9.7-4c-1.1-1.1-2-2.4-2.7-3.9
		C223.6,128.1,222.7,125.6,222.4,123 M252.5,123c0,0.5-0.1,0.9-0.2,1.4h0.2l0,0C252.6,123.9,252.6,123.4,252.5,123"/>
	<path class="st4" d="M252.5,157.3c0,0.5-0.1,0.9-0.2,1.4h0.2l0,0C252.6,158.2,252.6,157.7,252.5,157.3 M222.4,157.3
		c0,0.5-0.1,0.9-0.1,1.4c0,8.3,6.8,15.1,15.1,15.1c8.3,0,15.1-6.8,15.1-15.1h-0.2c-0.4,2.1-1.2,4.1-2.4,5.8
		c-0.7,1.5-1.6,2.8-2.7,3.9c-2.5,2.5-5.9,4-9.7,4c-3.8,0-7.2-1.5-9.7-4c-1.1-1.1-2-2.4-2.7-3.9C223.6,162.4,222.7,159.9,222.4,157.3
		"/>
	<g id="KnobTop">
		<path class="st0" d="M251.9,121.6c0,8-6.5,14.4-14.4,14.4c-8,0-14.4-6.5-14.4-14.4c0-8,6.5-14.4,14.4-14.4
			C245.4,107.2,251.9,113.6,251.9,121.6"/>
		<path d="M251.9,121.6h-0.7c0,3.8-1.5,7.2-4,9.7c-2.5,2.5-5.9,4-9.7,4c-3.8,0-7.2-1.5-9.7-4c-2.5-2.5-4-5.9-4-9.7
			c0-3.8,1.5-7.2,4-9.7c2.5-2.5,5.9-4,9.7-4c3.8,0,7.2,1.5,9.7,4c2.5,2.5,4,5.9,4,9.7H251.9h0.7c0-8.3-6.8-15.1-15.1-15.1
			c-8.3,0-15.1,6.8-15.1,15.1c0,8.3,6.8,15.1,15.1,15.1c8.3,0,15.1-6.8,15.1-15.1H251.9"/>
		<path class="st0" d="M246.1,121.6c0,4.8-3.9,8.6-8.6,8.6c-4.8,0-8.6-3.9-8.6-8.6s3.9-8.6,8.6-8.6
			C242.3,112.9,246.1,116.8,246.1,121.6"/>
		<path d="M246.1,121.6h-0.7c0,2.2-0.9,4.2-2.3,5.6c-1.4,1.4-3.4,2.3-5.6,2.3c-2.2,0-4.2-0.9-5.6-2.3c-1.4-1.4-2.3-3.4-2.3-5.6
			c0-2.2,0.9-4.2,2.3-5.6c1.4-1.4,3.4-2.3,5.6-2.3c2.2,0,4.2,0.9,5.6,2.3c1.4,1.4,2.3,3.4,2.3,5.6H246.1h0.7c0-5.2-4.2-9.3-9.3-9.3
			c-5.2,0-9.3,4.2-9.3,9.3c0,5.2,4.2,9.3,9.3,9.3c5.2,0,9.3-4.2,9.3-9.3H246.1"/>
		<path d="M245.9,123.6c-0.9,3.8-4.3,6.6-8.4,6.6s-7.5-2.8-8.4-6.6H245.9"/>
		<path d="M245.9,123.6l-0.7-0.2c-0.8,3.5-4,6.1-7.7,6.1c-3.7,0-6.9-2.6-7.7-6.1l-0.7,0.2v0.7h16.8V123.6l-0.7-0.2L245.9,123.6V123
			h-17.6l0.2,0.8c1,4.1,4.7,7.1,9.1,7.1c4.4,0,8.1-3,9.1-7.1l0.2-0.8h-0.9V123.6"/>
		<path class="st0" d="M246.1,121.6c0,0.7-0.1,1.4-0.3,2.1h-16.8c-0.2-0.7-0.3-1.3-0.3-2.1c0-4.8,3.9-8.6,8.6-8.6
			C242.3,112.9,246.1,116.8,246.1,121.6"/>
		<path d="M246.1,121.6h-0.7c0,0.7-0.1,1.3-0.2,1.9l0.7,0.2V123h-16.8v0.7l0.7-0.2c-0.2-0.6-0.2-1.2-0.2-1.9c0-2.2,0.9-4.2,2.3-5.6
			c1.4-1.4,3.4-2.3,5.6-2.3c2.2,0,4.2,0.9,5.6,2.3c1.4,1.4,2.3,3.4,2.3,5.6H246.1h0.7c0-5.2-4.2-9.3-9.3-9.3c-5.2,0-9.3,4.2-9.3,9.3
			c0,0.8,0.1,1.5,0.3,2.2l0.1,0.5h17.8l0.1-0.5c0.2-0.7,0.3-1.5,0.3-2.2H246.1"/>
		<path class="st0" d="M251.9,121.6c0,1.1-0.9,2.1-2.1,2.1h-24.7c-1.1,0-2.1-0.9-2.1-2.1c0-1.1,0.9-2.1,2.1-2.1h24.7
			C251,119.5,251.9,120.5,251.9,121.6"/>
		<path d="M251.9,121.6h-0.7c0,0.8-0.6,1.4-1.4,1.4h-24.7c-0.8,0-1.4-0.6-1.4-1.4c0-0.8,0.6-1.4,1.4-1.4h24.7c0.8,0,1.4,0.6,1.4,1.4
			H251.9h0.7c0-1.5-1.2-2.7-2.7-2.7h-24.7c-1.5,0-2.7,1.2-2.7,2.7c0,1.5,1.2,2.7,2.7,2.7h24.7c1.5,0,2.7-1.2,2.7-2.7H251.9"/>
		<path d="M251.9,121.6c0,1.1-0.9,2.1-2.1,2.1h-24.7c-1.1,0-2.1-0.9-2.1-2.1H251.9"/>
		<path d="M251.9,121.6h-0.7c0,0.8-0.6,1.4-1.4,1.4h-24.7c-0.8,0-1.4-0.6-1.4-1.4h-0.7v0.7h28.8V121.6h-0.7H251.9v-0.7h-29.5v0.7
			c0,1.5,1.2,2.7,2.7,2.7h24.7c1.5,0,2.7-1.2,2.7-2.7v-0.7h-0.7V121.6"/>
		<path class="st4" d="M251,124.1c-0.3,0.2-0.7,0.3-1.1,0.3h-3.4c-0.4,1.3-1,2.4-1.9,3.4c-1.2,1.4-2.8,2.4-4.6,2.9c0,0,0,0,0,0
			c0,0,0,0,0,0c-0.8,0.2-1.5,0.3-2.4,0.3c-0.8,0-1.5-0.1-2.2-0.3c0,0,0,0,0,0c0,0,0,0,0,0c-1.9-0.5-3.6-1.5-4.8-2.9
			c-0.9-1-1.5-2.1-1.9-3.4h-3.4c-0.4,0-0.8-0.1-1.1-0.3c0.5,2.8,1.9,5.3,3.8,7.2c2.5,2.5,5.9,4,9.7,4c3.8,0,7.2-1.5,9.7-4
			C249.1,129.4,250.5,126.9,251,124.1"/>
		<path d="M235.3,130.7C235.3,130.7,235.3,130.7,235.3,130.7C235.3,130.7,235.3,130.7,235.3,130.7 M239.8,130.6
			c-0.8,0.2-1.5,0.3-2.4,0.3c-0.8,0-1.5-0.1-2.2-0.3c0.7,0.2,1.4,0.3,2.2,0.3C238.3,130.9,239.1,130.8,239.8,130.6 M239.8,130.6
			C239.8,130.6,239.8,130.6,239.8,130.6C239.8,130.6,239.8,130.6,239.8,130.6 M228.6,124.3L228.6,124.3L228.6,124.3
			c0.4,1.3,1,2.4,1.9,3.4C229.6,126.8,228.9,125.6,228.6,124.3 M246.4,124.3L246.4,124.3c-0.4,1.3-1.1,2.4-1.9,3.4
			C245.3,126.8,246,125.6,246.4,124.3"/>
		<path d="M244.9,124.3H230c1.1,3,4,5.2,7.5,5.2c0,0,0,0,0,0c0,0,0,0,0,0C240.9,129.6,243.8,127.4,244.9,124.3"/>
		<path d="M230,124.3h14.9c-1.1,3-4,5.2-7.5,5.2c0,0,0,0,0,0c0,0,0,0,0,0C234,129.6,231.1,127.4,230,124.3 M246.4,124.3h-17.8
			c0.4,1.3,1,2.4,1.9,3.4c1.2,1.4,2.9,2.5,4.8,2.9c0,0,0,0,0,0c0,0,0,0,0,0c0.7,0.2,1.4,0.3,2.2,0.3c0.8,0,1.6-0.1,2.4-0.3
			c0,0,0,0,0,0c0,0,0,0,0,0c1.8-0.5,3.4-1.5,4.6-2.9C245.3,126.8,246,125.6,246.4,124.3"/>
		<path d="M251,122.3h-27.1c0.2,0.4,0.7,0.7,1.2,0.7h24.7C250.3,123,250.8,122.7,251,122.3"/>
		<path d="M223.9,122.3H251c-0.2,0.4-0.7,0.7-1.2,0.7h-24.7C224.6,123,224.2,122.7,223.9,122.3 M251.2,122.3h-27.4
			c0,0.6,0.1,1.2,0.2,1.8c0.3,0.2,0.7,0.3,1.1,0.3h24.7c0.4,0,0.8-0.1,1.1-0.3C251.1,123.5,251.2,122.9,251.2,122.3"/>
		<path d="M252.6,121.6c0,1.1-0.7,2.1-1.6,2.5c-0.5,2.8-1.9,5.3-3.8,7.2c-2.5,2.5-5.9,4-9.7,4c-3.8,0-7.2-1.5-9.7-4
			c-1.9-1.9-3.3-4.4-3.8-7.2c-0.9-0.4-1.6-1.4-1.6-2.5c0,8.3,6.8,15.1,15.1,15.1C245.8,136.7,252.6,129.9,252.6,121.6"/>
		<path d="M251.2,121.6h0.7H251.2 M251.2,121.6h0.7H251.2 M252.6,120.9L252.6,120.9h-0.7H251h-27.1h-1.5h-0.1v0.7l0,0
			c0,1.1,0.7,2.1,1.6,2.5c-0.1-0.6-0.2-1.2-0.2-1.8h27.4c0,0.6-0.1,1.2-0.2,1.8c0.9-0.4,1.6-1.4,1.6-2.5l0,0V120.9"/>
	</g>
	<g id="KnobBottom">
		<path class="st0" d="M251.9,155.9c0,8-6.5,14.4-14.4,14.4c-8,0-14.4-6.5-14.4-14.4s6.5-14.4,14.4-14.4
			C245.4,141.5,251.9,148,251.9,155.9"/>
		<path d="M251.9,155.9h-0.7c0,3.8-1.5,7.2-4,9.7c-2.5,2.5-5.9,4-9.7,4c-3.8,0-7.2-1.5-9.7-4c-2.5-2.5-4-5.9-4-9.7
			c0-3.8,1.5-7.2,4-9.7c2.5-2.5,5.9-4,9.7-4c3.8,0,7.2,1.5,9.7,4c2.5,2.5,4,5.9,4,9.7H251.9h0.7c0-8.3-6.8-15.1-15.1-15.1
			c-8.3,0-15.1,6.8-15.1,15.1c0,8.3,6.8,15.1,15.1,15.1c8.3,0,15.1-6.8,15.1-15.1H251.9"/>
		<path class="st0" d="M246.1,155.9c0,4.8-3.9,8.6-8.6,8.6c-4.8,0-8.6-3.9-8.6-8.6s3.9-8.6,8.6-8.6
			C242.3,147.3,246.1,151.1,246.1,155.9"/>
		<path d="M246.1,155.9h-0.7c0,2.2-0.9,4.2-2.3,5.6c-1.4,1.4-3.4,2.3-5.6,2.3c-2.2,0-4.2-0.9-5.6-2.3c-1.4-1.4-2.3-3.4-2.3-5.6
			c0-2.2,0.9-4.2,2.3-5.6c1.4-1.4,3.4-2.3,5.6-2.3c2.2,0,4.2,0.9,5.6,2.3c1.4,1.4,2.3,3.4,2.3,5.6H246.1h0.7c0-5.2-4.2-9.3-9.3-9.3
			c-5.2,0-9.3,4.2-9.3,9.3c0,5.2,4.2,9.3,9.3,9.3c5.2,0,9.3-4.2,9.3-9.3H246.1"/>
		<path d="M245.9,158c-0.9,3.8-4.3,6.6-8.4,6.6s-7.5-2.8-8.4-6.6H245.9"/>
		<path d="M245.9,158l-0.7-0.2c-0.8,3.5-4,6.1-7.7,6.1c-3.7,0-6.9-2.6-7.7-6.1l-0.7,0.2v0.7h16.8V158l-0.7-0.2L245.9,158v-0.7h-17.6
			l0.2,0.8c1,4.1,4.7,7.1,9.1,7.1c4.4,0,8.1-3,9.1-7.1l0.2-0.8h-0.9V158"/>
		<path class="st0" d="M246.1,155.9c0,0.7-0.1,1.4-0.3,2.1h-16.8c-0.2-0.7-0.3-1.3-0.3-2.1c0-4.8,3.9-8.6,8.6-8.6
			C242.3,147.3,246.1,151.1,246.1,155.9"/>
		<path d="M246.1,155.9h-0.7c0,0.7-0.1,1.3-0.2,1.9l0.7,0.2v-0.7h-16.8v0.7l0.7-0.2c-0.2-0.6-0.2-1.2-0.2-1.9c0-2.2,0.9-4.2,2.3-5.6
			c1.4-1.4,3.4-2.3,5.6-2.3c2.2,0,4.2,0.9,5.6,2.3c1.4,1.4,2.3,3.4,2.3,5.6H246.1h0.7c0-5.2-4.2-9.3-9.3-9.3c-5.2,0-9.3,4.2-9.3,9.3
			c0,0.8,0.1,1.5,0.3,2.2l0.1,0.5h17.8l0.1-0.5c0.2-0.7,0.3-1.5,0.3-2.2H246.1"/>
		<path class="st0" d="M251.9,155.9c0,1.1-0.9,2.1-2.1,2.1h-24.7c-1.1,0-2.1-0.9-2.1-2.1c0-1.1,0.9-2.1,2.1-2.1h24.7
			C251,153.9,251.9,154.8,251.9,155.9"/>
		<path d="M251.9,155.9h-0.7c0,0.8-0.6,1.4-1.4,1.4h-24.7c-0.8,0-1.4-0.6-1.4-1.4c0-0.8,0.6-1.4,1.4-1.4h24.7c0.8,0,1.4,0.6,1.4,1.4
			H251.9h0.7c0-1.5-1.2-2.7-2.7-2.7h-24.7c-1.5,0-2.7,1.2-2.7,2.7c0,1.5,1.2,2.7,2.7,2.7h24.7c1.5,0,2.7-1.2,2.7-2.7H251.9"/>
		<path d="M251.9,155.9c0,1.1-0.9,2.1-2.1,2.1h-24.7c-1.1,0-2.1-0.9-2.1-2.1H251.9"/>
		<path d="M251.9,155.9h-0.7c0,0.8-0.6,1.4-1.4,1.4h-24.7c-0.8,0-1.4-0.6-1.4-1.4h-0.7v0.7h28.8V155.9h-0.7H251.9v-0.7h-29.5v0.7
			c0,1.5,1.2,2.7,2.7,2.7h24.7c1.5,0,2.7-1.2,2.7-2.7v-0.7h-0.7V155.9"/>
		<path class="st4" d="M251,158.4c-0.3,0.2-0.7,0.3-1.1,0.3h-3.4c-0.4,1.3-1,2.4-1.9,3.4c-1.2,1.4-2.8,2.4-4.6,2.9c0,0,0,0,0,0
			c0,0,0,0,0,0c-0.8,0.2-1.5,0.3-2.4,0.3c-0.8,0-1.6-0.1-2.3-0.3c0,0,0,0,0,0c0,0,0,0,0,0c0,0,0,0,0,0c0,0,0,0,0,0
			c-1.8-0.5-3.5-1.5-4.7-2.9c-0.9-1-1.5-2.1-1.9-3.4h-3.4c-0.4,0-0.8-0.1-1.1-0.3c0.5,2.8,1.9,5.3,3.8,7.2c2.5,2.5,5.9,4,9.7,4
			c3.8,0,7.2-1.5,9.7-4C249.1,163.7,250.5,161.2,251,158.4"/>
		<path d="M235.1,165C235.2,165,235.2,165,235.1,165C235.2,165,235.2,165,235.1,165 M235.1,165C235.1,165,235.1,165,235.1,165
			C235.1,165,235.1,165,235.1,165 M239.8,164.9c-0.8,0.2-1.5,0.3-2.4,0.3c-0.8,0-1.6-0.1-2.3-0.3c0.7,0.2,1.5,0.3,2.3,0.3
			C238.3,165.2,239.1,165.1,239.8,164.9 M239.8,164.9C239.8,164.9,239.8,164.9,239.8,164.9C239.8,164.9,239.8,164.9,239.8,164.9
			 M228.6,158.7L228.6,158.7L228.6,158.7c0.4,1.3,1,2.4,1.9,3.4C229.6,161.1,228.9,159.9,228.6,158.7 M246.4,158.7L246.4,158.7
			c-0.4,1.3-1.1,2.4-1.9,3.4C245.3,161.1,246,159.9,246.4,158.7"/>
		<path d="M244.9,158.7H230c1.1,3,4,5.2,7.5,5.2c0,0,0,0,0,0c0,0,0,0,0,0C240.9,163.9,243.8,161.7,244.9,158.7"/>
		<path d="M230,158.7h14.9c-1.1,3-4,5.2-7.5,5.2c0,0,0,0,0,0c0,0,0,0,0,0C234,163.9,231.1,161.7,230,158.7 M246.4,158.7h-17.8
			c0.4,1.3,1,2.4,1.9,3.4c1.2,1.4,2.8,2.4,4.7,2.9c0,0,0,0,0,0c0,0,0,0,0,0c0,0,0,0,0,0c0,0,0,0,0,0c0.7,0.2,1.5,0.3,2.3,0.3
			c0.8,0,1.6-0.1,2.4-0.3c0,0,0,0,0,0c0,0,0,0,0,0c1.8-0.5,3.4-1.5,4.6-2.9C245.3,161.1,246,159.9,246.4,158.7"/>
		<path d="M251,156.6h-27.1c0.2,0.4,0.7,0.7,1.2,0.7h24.7C250.3,157.3,250.8,157,251,156.6"/>
		<path d="M223.9,156.6H251c-0.2,0.4-0.7,0.7-1.2,0.7h-24.7C224.6,157.3,224.2,157,223.9,156.6 M251.2,156.6h-27.4
			c0,0.6,0.1,1.2,0.2,1.8c0.3,0.2,0.7,0.3,1.1,0.3h24.7c0.4,0,0.8-0.1,1.1-0.3C251.1,157.8,251.2,157.2,251.2,156.6"/>
		<path d="M252.6,155.9c0,1.1-0.7,2.1-1.6,2.5c-0.5,2.8-1.9,5.3-3.8,7.2c-2.5,2.5-5.9,4-9.7,4c-3.8,0-7.2-1.5-9.7-4
			c-1.9-1.9-3.3-4.4-3.8-7.2c-0.9-0.4-1.6-1.4-1.6-2.5c0,8.3,6.8,15.1,15.1,15.1C245.8,171,252.6,164.3,252.6,155.9"/>
		<path d="M251.2,155.9h0.7H251.2 M251.2,155.9h0.7H251.2 M252.6,155.2L252.6,155.2h-0.7H251h-27.1h-1.5h-0.1v0.7l0,0
			c0,1.1,0.7,2.1,1.6,2.5c-0.1-0.6-0.2-1.2-0.2-1.8h27.4c0,0.6-0.1,1.2-0.2,1.8c0.9-0.4,1.6-1.4,1.6-2.5l0,0V155.2"/>
	</g>
	<g id="Button1">
		<path class="st4" d="M263.6,111.3c-1.9,0-3.4,1.5-3.4,3.4c0,1.9,1.5,3.4,3.4,3.4c1.9,0,3.4-1.5,3.4-3.4h0.7l0,0H267
			C267,112.8,265.5,111.3,263.6,111.3"/>
		<path class="st4" d="M268.4,114.7L268.4,114.7L268.4,114.7 M263.6,109.9c-2.7,0-4.8,2.2-4.8,4.8c0,2.7,2.2,4.8,4.8,4.8
			c2.7,0,4.8-2.2,4.8-4.8h-0.7H267c0,1.9-1.5,3.4-3.4,3.4c-1.9,0-3.4-1.5-3.4-3.4c0-1.9,1.5-3.4,3.4-3.4c1.9,0,3.4,1.5,3.4,3.4h0.7
			h0.7l0,0C268.4,112.1,266.2,109.9,263.6,109.9"/>
		<circle class="st1" cx="263.6" cy="113.4" r="4.1"/>
		<circle class="st2" cx="263.6" cy="113.4" r="4.1"/>
	</g>
	<g id="Button2">
		<path class="st4" d="M263.6,137.4c-1.9,0-3.4,1.5-3.4,3.4c0,1.9,1.5,3.4,3.4,3.4c1.9,0,3.4-1.5,3.4-3.4h0.7l0,0H267
			C267,138.9,265.5,137.4,263.6,137.4"/>
		<path class="st4" d="M268.4,140.8L268.4,140.8L268.4,140.8 M263.6,136c-2.7,0-4.8,2.2-4.8,4.8c0,2.7,2.2,4.8,4.8,4.8
			c2.7,0,4.8-2.2,4.8-4.8h-0.7H267c0,1.9-1.5,3.4-3.4,3.4c-1.9,0-3.4-1.5-3.4-3.4c0-1.9,1.5-3.4,3.4-3.4c1.9,0,3.4,1.5,3.4,3.4h0.7
			h0.7l0,0C268.4,138.2,266.2,136,263.6,136"/>
		<circle class="st1" cx="263.6" cy="139.4" r="4.1"/>
		<circle class="st2" cx="263.6" cy="139.4" r="4.1"/>
	</g>
	<g id="Button3">
		<path class="st4" d="M263.6,163.5c-1.9,0-3.4,1.5-3.4,3.4c0,1.9,1.5,3.4,3.4,3.4c1.9,0,3.4-1.5,3.4-3.4h0.7l0,0H267
			C267,165,265.5,163.5,263.6,163.5"/>
		<path class="st4" d="M268.4,166.9L268.4,166.9L268.4,166.9 M263.6,162.1c-2.7,0-4.8,2.2-4.8,4.8c0,2.7,2.2,4.8,4.8,4.8
			c2.7,0,4.8-2.2,4.8-4.8h-0.7H267c0,1.9-1.5,3.4-3.4,3.4c-1.9,0-3.4-1.5-3.4-3.4c0-1.9,1.5-3.4,3.4-3.4c1.9,0,3.4,1.5,3.4,3.4h0.7
			h0.7l0,0C268.4,164.2,266.2,162.1,263.6,162.1"/>
		<circle class="st1" cx="263.6" cy="165.5" r="4.1"/>
		<circle class="st2" cx="263.6" cy="165.5" r="4.1"/>
		<script type="text/javascript" xlink:href="../svg.js" />
	</g>
</g>
</svg>
