<svg id="Layer_1" data-name="Layer 1" xmlns="http://www.w3.org/2000/svg" viewBox="0 0 300 300"><defs><style>.cls-1{fill:#ebebec;}.cls-2{fill:#fce0e0;}.cls-3{fill:#bfbebe;}.cls-4{fill:#97efec;}.cls-5{fill:#4c4845;}.cls-6,.cls-9{fill:#fff;}.cls-7{fill:#f9b9b9;}.cls-8{fill:#ddd7d7;}.cls-9{opacity:0.2;isolation:isolate;}</style></defs><title>icons</title><path class="cls-1" d="M173.54,104c7.39-4.11,51-82.55,60.89-91.59s7.4,12.33,9,19.72,16.68,132.12,16.8,147.7c.17,22.86-2,110-107.72,110h-5.47C41.37,289.8,39.56,200,39.73,177.18,39.85,161.6,54.52,39.5,56.16,32.11s-.82-28.75,9-19.72S118.7,99.87,126.09,104,166.14,108.09,173.54,104Z"/><path class="cls-2" d="M59.71,142.82c6.38,6.71,22.4,3,34.88-6.38,7.48-5.59,26.24-22.23,18.36-35.82-11.92-20.54-38.3-77-49-71.29C58,32.55,49.35,131.93,59.71,142.82Z"/><path class="cls-2" d="M239,142.82c-6.38,6.71-22.39,3-34.87-6.38-7.49-5.59-26.24-22.23-18.36-35.82,11.91-20.54,38.3-77,49-71.29C240.74,32.55,249.38,131.93,239,142.82Z"/><path class="cls-3" d="M125.74,196s-2.47-29.17-19.31-32.45S79.73,170,79.73,170,73.64,205.81,125.74,196Z"/><circle class="cls-4" cx="102.62" cy="180.29" r="16.22"/><circle class="cls-5" cx="103.44" cy="180.09" r="9.58"/><circle class="cls-6" cx="102.9" cy="178.65" r="3.01"/><path class="cls-3" d="M169.79,195.8s2.46-29.16,19.3-32.45,26.7,6.44,26.7,6.44S221.89,205.6,169.79,195.8Z"/><circle class="cls-4" cx="192.9" cy="180.09" r="16.23"/><circle class="cls-5" cx="192.08" cy="179.88" r="9.58"/><path class="cls-6" d="M189.61,178.45a3,3,0,1,0,3-3A3,3,0,0,0,189.61,178.45Z"/><path class="cls-7" d="M136.79,258.33s5.84,4.42,11,4.42,11-4.42,11-4.42l1.78-6.26-12.3-3.4h-.88Z"/><path class="cls-1" d="M147.76,242.42a17,17,0,1,1-34.09,0"/><path class="cls-1" d="M181.85,242.42a17,17,0,1,1-34.09,0"/><path class="cls-8" d="M166,259.47a18.23,18.23,0,0,1-17.89-14.8h-.33a18.22,18.22,0,0,0,36.44,0h-.33A18.22,18.22,0,0,1,166,259.47Z"/><path class="cls-8" d="M129.54,259.47a18.23,18.23,0,0,1-17.89-14.8h-.33a18.22,18.22,0,0,0,36.44,0h-.33A18.22,18.22,0,0,1,129.54,259.47Z"/><path class="cls-7" d="M154.54,215.79H141c-18.24,0-12.34,16.39-6.88,16.39,7.82,0,9.49,3.78,12.36,4.71l.81,12h1l.82-12c2.87-.93,4.53-4.71,12.35-4.71C166.87,232.18,172.77,215.79,154.54,215.79Z"/><path class="cls-9" d="M147.84,107c-9.27-.13-18.15-1.15-21.58-3.06-7.4-4.11-51-82.55-60.9-91.59s-7.39,12.33-9,19.72S40,161.6,39.89,177.18C39.72,200,41.54,289.8,147.24,289.8h.6Z"/></svg>