<svg id="Layer_1" data-name="Layer 1" xmlns="http://www.w3.org/2000/svg" viewBox="0 0 300 300"><defs><style>.cls-1{fill:#774518;}.cls-2{fill:#60320d;}.cls-3{fill:#262625;}.cls-4{fill:#3a3a38;}.cls-5{fill:#d8d8d7;}.cls-6{fill:#b79251;}</style></defs><title>icons</title><path class="cls-1" d="M295.25,277.66a8.41,8.41,0,0,1-8.41,8.4H13.16a8.41,8.41,0,0,1-8.41-8.4V104.93a8.41,8.41,0,0,1,8.41-8.4H286.84a8.41,8.41,0,0,1,8.41,8.4Z"/><rect class="cls-2" x="248.8" y="198.71" width="38.91" height="70.98"/><path class="cls-1" d="M282.51,207.29H253.82a2.52,2.52,0,0,1,0-5h28.69a2.52,2.52,0,0,1,0,5Z"/><path class="cls-1" d="M282.51,215.87H253.82a2.52,2.52,0,0,1,0-5h28.69a2.52,2.52,0,0,1,0,5Z"/><path class="cls-1" d="M282.51,224.18H253.82a2.51,2.51,0,1,1,0-5h28.69a2.51,2.51,0,1,1,0,5Z"/><path class="cls-1" d="M282.51,232.68H253.82a2.52,2.52,0,0,1,0-5h28.69a2.52,2.52,0,0,1,0,5Z"/><path class="cls-1" d="M282.51,240.82H253.82a2.51,2.51,0,0,1,0-5h28.69a2.51,2.51,0,0,1,0,5Z"/><path class="cls-1" d="M282.51,249.32H253.82a2.52,2.52,0,0,1,0-5h28.69A2.51,2.51,0,0,1,285,246.8,2.46,2.46,0,0,1,282.51,249.32Z"/><path class="cls-1" d="M282.51,257.72H253.82a2.51,2.51,0,1,1,0-5h28.69a2.51,2.51,0,0,1,2.51,2.51A2.45,2.45,0,0,1,282.51,257.72Z"/><path class="cls-1" d="M282.51,266.22H253.82a2.52,2.52,0,0,1,0-5h28.69A2.51,2.51,0,0,1,285,263.7,2.46,2.46,0,0,1,282.51,266.22Z"/><path class="cls-3" d="M25.55,125a12.21,12.21,0,0,1,12.22-12.22h193A12.21,12.21,0,0,1,243,125V257.46a12.21,12.21,0,0,1-12.22,12.22h-193a12.21,12.21,0,0,1-12.22-12.22Z"/><path class="cls-4" d="M32.4,130.59a11.2,11.2,0,0,1,11.18-11.18H224.36a11.21,11.21,0,0,1,11.18,11.18V252a11.21,11.21,0,0,1-11.18,11.18H43.58A11.2,11.2,0,0,1,32.4,252Z"/><path class="cls-5" d="M37.42,129.89A7,7,0,0,1,44.36,123h28c-11.87,6.07-27.3,10.4-34.93,46.45Z"/><circle class="cls-6" cx="268.56" cy="131.11" r="16.29"/><circle class="cls-4" cx="268.56" cy="131.11" r="10.83"/><path class="cls-6" d="M274.36,133.19l-7.8-7.8a1.26,1.26,0,0,0-1.82,0l-1.9,1.9a1.32,1.32,0,0,0-.35,1,1.77,1.77,0,0,0,.35.95l7.8,7.8a1.46,1.46,0,0,0,1.9,0l1.91-1.91a1.29,1.29,0,0,0,.35-1A1.39,1.39,0,0,0,274.36,133.19Z"/><circle class="cls-6" cx="268.56" cy="171.93" r="16.29"/><circle class="cls-4" cx="268.56" cy="171.93" r="10.83"/><path class="cls-6" d="M266.56,177.73l7.8-7.8a1.26,1.26,0,0,0,0-1.82l-1.9-1.9a1.32,1.32,0,0,0-1-.35,1.77,1.77,0,0,0-.95.35l-7.8,7.8a1.46,1.46,0,0,0,0,1.9l1.91,1.91a1.29,1.29,0,0,0,.95.35A1.94,1.94,0,0,0,266.56,177.73Z"/><path class="cls-4" d="M203.56,18.36a1.79,1.79,0,0,0-2.51.34l-52.7,69.42-53-69.42a1.8,1.8,0,0,0-2.86,2.17l53.74,72.8a2.56,2.56,0,0,0,2,1h.35a2.32,2.32,0,0,0,2-1l53.39-72.8A1.72,1.72,0,0,0,203.56,18.36Z"/><circle class="cls-4" cx="202.52" cy="18.7" r="4.77"/><circle class="cls-4" cx="93.06" cy="18.7" r="4.77"/><ellipse class="cls-1" cx="150" cy="98.35" rx="22.62" ry="10.4"/></svg>